<svg width="36" height="24" viewBox="0 0 36 24" fill="none" xmlns="http://www.w3.org/2000/svg">
<path d="M19.5411 13.1341L14.1502 22.3669L8.75931 13.1341H19.5411ZM20.9853 12.3088H7.30927L14.1502 24L20.9853 12.3088Z" fill="#263238"/>
<path d="M28.9139 1.65038L34.3048 10.8833H23.5229L28.9139 1.65038ZM28.9139 0L22.0729 11.6912H35.7548L28.9139 0Z" fill="#263238"/>
<path d="M0.754791 0L6.4907 10.3409L12.7586 0.259661L0.754791 0Z" fill="#4CAF4F"/>
<path d="M14.1503 0.905762L20.1669 11.1889H8.12207L14.1503 0.905762Z" fill="#4CAF4F"/>
<path d="M21.7163 13.4341L27.7387 24H15.4074L21.5292 13.4341H21.7163Z" fill="#4CAF4F"/>
<path d="M23.0201 12.7935L28.9139 23.1978L34.8895 12.7935H23.0201Z" fill="#4CAF4F"/>
</svg>
