<svg width="49" height="48" viewBox="0 0 49 48" fill="none" xmlns="http://www.w3.org/2000/svg">
<path d="M28.9782 23.6446C28.7374 23.6446 28.5138 23.5784 28.3152 23.4719V23.4748C28.3152 23.8536 28.1679 24.2094 27.9008 24.4758C27.6336 24.743 27.2781 24.8903 26.8997 24.8903C26.6554 24.8903 26.429 24.8224 26.2282 24.7131C26.208 25.0597 26.0694 25.3836 25.8223 25.631C25.5551 25.8982 25.1996 26.0454 24.821 26.0454C24.0687 26.0454 23.4578 25.4541 23.4138 24.7129C23.181 24.8387 22.9178 24.9046 22.6464 24.8872C21.9064 24.8387 21.3268 24.1993 21.3268 23.4312V17.0645L20.6018 18.3205C20.3257 18.8009 19.8088 19.0991 19.2523 19.0991C18.9812 19.0991 18.7133 19.028 18.476 18.892C18.1806 18.7208 17.9693 18.4458 17.8814 18.1169C17.7931 17.7878 17.8388 17.4436 18.0096 17.1486C18.0098 17.1486 20.3816 13.0414 20.5262 12.7891C20.5434 12.7512 20.5925 12.6411 20.6342 12.5474C20.674 12.4578 20.7081 12.366 20.7409 12.2736C21.4561 10.2543 23.2272 8.99998 25.3631 8.99998C28.1368 8.99998 30.3933 11.4469 30.3933 14.4546L30.3936 22.2289C30.3936 22.6073 30.2465 22.9628 29.9796 23.2302C29.7124 23.4974 29.3569 23.6447 28.9781 23.6447L28.9782 23.6446ZM25.3631 9.75212C23.5278 9.75212 22.065 10.7888 21.4498 12.5251C21.4105 12.6354 21.3695 12.7457 21.3217 12.8531C21.1829 13.1643 21.1829 13.1643 21.1438 13.2091L21.1386 13.2046C20.9449 13.57 20.3696 14.5663 18.6608 17.525C18.5906 17.6463 18.572 17.7872 18.6078 17.922C18.6441 18.0567 18.731 18.1703 18.8514 18.2398C19.2251 18.4544 19.7368 18.3159 19.9498 17.9448L21.3773 15.4734C21.4626 15.3261 21.635 15.2538 21.8004 15.2986C21.9648 15.3426 22.0791 15.4918 22.0791 15.6619V23.4314C22.0791 23.798 22.3557 24.1144 22.6957 24.1368C22.8917 24.1471 23.0745 24.0814 23.2119 23.9443C23.3368 23.8194 23.4055 23.6531 23.4055 23.4752V18.3938C23.4055 18.186 23.574 18.0176 23.7818 18.0176C23.9896 18.0176 24.158 18.1858 24.158 18.3938L24.1578 24.6302C24.1578 24.9958 24.4554 25.2934 24.821 25.2934C24.9987 25.2934 25.1655 25.2246 25.2906 25.0997C25.4154 24.9746 25.4842 24.8078 25.4842 24.6302V18.3938C25.4842 18.186 25.6524 18.0176 25.8605 18.0176C26.0683 18.0176 26.2367 18.1858 26.2367 18.3938L26.2365 23.4168V23.4752C26.2365 23.8406 26.534 24.1381 26.8999 24.1381C27.0773 24.1381 27.2437 24.0691 27.3695 23.9438C27.4943 23.8191 27.5631 23.6528 27.5631 23.4749V18.3936C27.5631 18.1858 27.7314 18.0173 27.9394 18.0173C28.1472 18.0173 28.3156 18.1855 28.3156 18.3936L28.3152 22.2291C28.3152 22.595 28.6127 22.8925 28.9781 22.8925C29.156 22.8925 29.3223 22.8235 29.4472 22.6989C29.5725 22.5736 29.6411 22.4067 29.6411 22.2291L29.6413 14.4548C29.6413 11.862 27.7222 9.7522 25.3631 9.7522L25.3631 9.75212Z" fill="#103E13"/>
<path d="M14.1956 29.048L19.6553 25.7727C20.3136 25.3774 21.1606 25.5454 21.5827 26.1553C21.7368 26.3775 21.8155 26.6364 21.8278 26.9001C22.0313 26.7938 22.2528 26.7361 22.4782 26.7361C22.5937 26.7361 22.7096 26.7505 22.8241 26.779C23.1909 26.8706 23.5 27.0999 23.6944 27.424C23.889 27.7487 23.9458 28.1291 23.8542 28.4955C23.7696 28.8346 23.5634 29.1199 23.2767 29.3157C23.4772 29.4339 23.6501 29.5953 23.7731 29.8008C23.9677 30.1254 24.0245 30.5057 23.9331 30.8725C23.8414 31.2389 23.6122 31.548 23.2875 31.7429L23.2857 31.744C23.4826 31.8621 23.6525 32.0218 23.7741 32.2242C23.9689 32.5488 24.0257 32.9293 23.934 33.2961C23.8421 33.6627 23.6129 33.9718 23.2887 34.1664L16.6223 38.1657C15.3781 38.9119 13.9398 39.1694 12.5729 38.8902C11.1937 38.6084 10.0515 37.8157 9.35697 36.6579C8.25788 34.8261 8.4226 32.6619 9.78599 31.0101C9.84843 30.9347 9.90992 30.8579 9.96576 30.7783C10.0249 30.6942 10.0939 30.5952 10.1175 30.5613C10.2586 30.3092 12.5614 26.1603 12.5611 26.1608C12.7937 25.7412 13.2295 25.5037 13.679 25.5039C13.8887 25.5039 14.1015 25.5555 14.2977 25.6644C14.5347 25.7968 14.7338 25.9898 14.873 26.2223C15.1593 26.6994 15.1694 27.2964 14.8999 27.7796L14.1956 29.048ZM14.2284 26.6091C14.1553 26.4873 14.055 26.3902 13.9322 26.3214C13.6785 26.181 13.359 26.2724 13.2193 26.5252C11.5716 29.4937 11.0099 30.5054 10.7931 30.8654L10.798 30.8666C10.7799 30.9269 10.7799 30.9269 10.5815 31.2103C10.5141 31.3062 10.4409 31.3983 10.3662 31.489C9.19382 32.9094 9.0577 34.6969 10.0017 36.2709C10.5865 37.2458 11.5529 37.9142 12.7231 38.1531C13.906 38.3937 15.1528 38.1699 16.235 37.5206L22.902 33.5211C23.0541 33.4299 23.1616 33.285 23.2045 33.1133C23.2473 32.9417 23.2207 32.7634 23.1293 32.6112C22.9413 32.2979 22.533 32.1949 22.2197 32.3836L18.9307 34.3568C18.7526 34.4637 18.5213 34.4062 18.4145 34.2279C18.3076 34.0498 18.3653 33.8187 18.5434 33.7117L21.8326 31.7386L22.9008 31.0977C23.053 31.0063 23.1607 30.8614 23.2035 30.6901C23.2464 30.5184 23.2198 30.3398 23.1284 30.1878C22.9401 29.8743 22.5318 29.7723 22.2187 29.9603L17.8614 32.5742C17.6828 32.6814 17.4521 32.6235 17.3452 32.4454C17.2382 32.2673 17.2962 32.0361 17.474 31.9292L22.8219 28.7211C22.9741 28.6296 23.0815 28.485 23.1244 28.3132C23.1673 28.1417 23.1406 27.9634 23.0495 27.8112C22.9583 27.6592 22.8134 27.5518 22.6416 27.5089C22.4689 27.466 22.2913 27.4927 22.1396 27.5836L21.1496 28.1775C21.1494 28.1775 21.1494 28.1778 21.1491 28.1778H21.1489L16.7918 30.7917C16.6132 30.8992 16.3823 30.8412 16.2756 30.6629C16.1686 30.4848 16.2266 30.2536 16.4044 30.1467L20.7618 27.5327C20.914 27.4413 21.0217 27.2964 21.0645 27.1251C21.1117 26.9371 21.0759 26.7449 20.9642 26.5837C20.7705 26.3036 20.3563 26.2291 20.0423 26.4179L13.3801 30.4146C13.2343 30.5017 13.0475 30.4805 12.9252 30.3625C12.8027 30.2442 12.7751 30.0583 12.8576 29.9097L14.2429 27.4137C14.3819 27.1642 14.3765 26.8561 14.2283 26.6092L14.2284 26.6091Z" fill="#103E13"/>
<path d="M40.2846 36.6577C39.5903 37.8157 38.4484 38.6083 37.069 38.8901C35.7018 39.1688 34.2639 38.9117 33.0195 38.1656L26.3525 34.1661C26.0281 33.9715 25.7986 33.6624 25.7067 33.2953C25.6155 32.9289 25.6725 32.5484 25.8669 32.2243C25.9882 32.0216 26.1583 31.8619 26.3555 31.7439L26.3537 31.7427C26.0292 31.5481 25.7998 31.239 25.7084 30.8724C25.6165 30.5058 25.6735 30.125 25.8681 29.8004C25.9934 29.5919 26.1652 29.4289 26.3612 29.3132C26.0766 29.1174 25.8716 28.8331 25.7873 28.4957C25.6954 28.1288 25.7524 27.7483 25.947 27.4242C26.1414 27.0997 26.4507 26.8705 26.8173 26.7789C26.9318 26.7501 27.048 26.736 27.163 26.736C27.3887 26.7362 27.6101 26.7935 27.8137 26.9C27.8262 26.6363 27.9046 26.3774 28.0587 26.1552C28.4811 25.5458 29.3274 25.3771 29.9866 25.7726L35.4461 29.0474L34.7424 27.7799C34.4724 27.296 34.4823 26.699 34.7686 26.2216C34.908 25.9893 35.1074 25.7964 35.3455 25.6628C35.5413 25.5544 35.7534 25.5031 35.9625 25.5031C36.4118 25.5033 36.8482 25.7403 37.0804 26.1599C37.89 27.6185 39.4176 30.3694 39.525 30.5614C39.5478 30.5946 39.6169 30.6936 39.676 30.7777C39.7323 30.8575 39.7931 30.9339 39.856 31.0097C41.2192 32.6622 41.3836 34.8262 40.2846 36.6578L40.2846 36.6577ZM39.2756 31.4892C39.2006 31.3985 39.1271 31.3059 39.0602 31.2105C38.8567 30.9217 38.8515 30.9141 38.8362 30.8385C38.5982 30.4448 38.0177 29.3997 36.422 26.5249C36.2821 26.2726 35.964 26.1805 35.7108 26.3204C35.5861 26.3901 35.486 26.4874 35.413 26.6093C35.265 26.8559 35.2594 27.1641 35.3991 27.4143L36.7839 29.9095C36.8666 30.0584 36.839 30.2441 36.7168 30.3623C36.5947 30.4808 36.4081 30.5016 36.2616 30.4144L29.5994 26.4177C29.2854 26.2295 28.8714 26.3032 28.6773 26.5836C28.5656 26.7447 28.53 26.937 28.5767 27.1247C28.6196 27.2963 28.7272 27.4409 28.8797 27.5323C28.8801 27.5326 28.8804 27.533 28.8808 27.5333L33.2368 30.1465C33.4149 30.2535 33.4727 30.4844 33.3657 30.6627C33.2587 30.8406 33.0281 30.8988 32.8495 30.7916L27.5017 27.5835C27.3499 27.4925 27.1714 27.4657 26.9998 27.5088C26.8279 27.5517 26.6832 27.6591 26.592 27.8115C26.5006 27.9635 26.4742 28.1418 26.5166 28.3133C26.5595 28.4849 26.6672 28.6297 26.8194 28.7212L27.86 29.3453L32.167 31.9293C32.3451 32.0363 32.4028 32.2672 32.2958 32.4455C32.1889 32.6234 31.9582 32.6814 31.7796 32.5744L27.4227 29.9604C27.1094 29.7719 26.7013 29.8742 26.5129 30.188C26.4215 30.3402 26.3951 30.5186 26.4375 30.6901C26.4804 30.8616 26.588 31.0062 26.7405 31.0979L27.8087 31.7387L31.0973 33.7119C31.2755 33.8188 31.3332 34.0497 31.2262 34.2281C31.1193 34.4059 30.8886 34.4644 30.71 34.3569L27.4213 32.3838C27.2696 32.2928 27.0917 32.266 26.9193 32.3091C26.7478 32.352 26.6026 32.4594 26.5115 32.6114C26.4203 32.7636 26.3937 32.9421 26.4361 33.1134C26.4789 33.2849 26.5866 33.4296 26.739 33.5212L33.406 37.5207C34.4879 38.1698 35.7356 38.3945 36.9179 38.1533C38.0878 37.9144 39.0543 37.246 39.639 36.2711C40.584 34.6968 40.4481 32.9091 39.276 31.4892L39.2756 31.4892Z" fill="#103E13"/>
</svg>
