<svg width="49" height="48" viewBox="0 0 49 48" fill="none" xmlns="http://www.w3.org/2000/svg">
<path d="M24.1686 13C21.4143 13 19.1721 15.2814 19.1721 18.0703C19.1721 19.8345 20.0706 21.3923 21.4275 22.3003C19.7887 22.8528 18.3707 23.8853 17.3307 25.2362C16.7557 24.7902 16.1132 24.4316 15.4205 24.1746C16.4709 23.3884 17.1572 22.1255 17.1572 20.7061C17.1572 18.3408 15.2599 16.4045 12.9282 16.4045C10.5965 16.4045 8.69924 18.3408 8.69924 20.7061C8.69924 22.1263 9.38618 23.3898 10.4374 24.176C7.65432 25.2115 5.66669 27.9225 5.66669 31.113V33.3542C5.66697 33.525 5.73475 33.6887 5.85494 33.809C5.97512 33.9296 6.13774 33.9968 6.3072 33.9962H16.0594C16.0831 33.9988 16.1067 34.0003 16.1304 34H32.2074C32.2311 34.0003 32.255 33.9988 32.2783 33.9962H42.0313C42.3819 33.9948 42.6658 33.7079 42.6667 33.3542V31.113C42.6667 27.9225 40.6825 25.2115 37.9009 24.1757C38.9521 23.3898 39.639 22.126 39.639 20.7058C39.639 18.3405 37.7417 16.4042 35.41 16.4042C33.0784 16.4042 31.181 18.3405 31.181 20.7058C31.181 22.1252 31.8677 23.3883 32.918 24.1743C32.224 24.4319 31.5812 24.7917 31.0053 25.2387C29.9658 23.8871 28.5498 22.8531 26.9111 22.3003C28.2675 21.3923 29.1664 19.8345 29.1664 18.0703C29.1664 15.2814 26.923 13 24.1688 13H24.1686ZM24.1686 14.2864C26.2286 14.2864 27.8892 15.972 27.8892 18.0703C27.8892 20.1521 26.2545 21.8213 24.2173 21.848C24.2011 21.848 24.1851 21.8457 24.1686 21.8457C24.1521 21.8457 24.1364 21.848 24.1199 21.848C22.0828 21.8216 20.4491 20.1522 20.4491 18.0703C20.4491 15.9717 22.1084 14.2864 24.1683 14.2864H24.1686ZM12.9283 17.6909C14.5628 17.6909 15.8814 19.0284 15.8814 20.706C15.8814 22.3723 14.5798 23.7041 12.9607 23.7222C12.9499 23.7222 12.9394 23.7211 12.9283 23.7211C12.9175 23.7211 12.9069 23.7222 12.8958 23.7222C11.2767 23.7041 9.97517 22.372 9.97517 20.706C9.97517 19.0285 11.2938 17.6909 12.9283 17.6909H12.9283ZM35.4096 17.6909C37.0441 17.6909 38.3627 19.0284 38.3627 20.706C38.3627 22.3723 37.0612 23.7041 35.4421 23.7222C35.4313 23.7222 35.4207 23.7211 35.4096 23.7211C35.3988 23.7211 35.3883 23.7222 35.3772 23.7222C33.7581 23.7041 32.4565 22.372 32.4565 20.706C32.4565 19.0285 33.7751 17.6909 35.4096 17.6909H35.4096ZM24.1198 23.1344C24.136 23.1347 24.1519 23.1367 24.1685 23.1367C24.1847 23.1367 24.2006 23.1344 24.2172 23.1344C28.3026 23.1608 31.5722 26.4858 31.5722 30.6479L31.5719 32.7131H16.7656V30.6479C16.7656 26.4854 20.0343 23.1609 24.1192 23.1344H24.1198ZM12.8795 25.0101C12.8957 25.0104 12.9116 25.0124 12.9282 25.0124C12.9447 25.0124 12.9603 25.0101 12.9769 25.0101C14.3587 25.0213 15.6198 25.5017 16.624 26.3054C15.9054 27.5873 15.4899 29.0669 15.4899 30.6483V32.7086H6.94207V31.1129C6.94207 27.7302 9.5799 25.0365 12.8793 25.0098L12.8795 25.0101ZM35.3608 25.0101C35.3773 25.0104 35.393 25.0124 35.4095 25.0124C35.426 25.0124 35.4417 25.0101 35.4582 25.0101C38.7576 25.0365 41.3954 27.7306 41.3954 31.1132V32.7086H32.8433L32.843 30.6483C32.843 29.0678 32.4286 27.5893 31.7114 26.3077C32.7159 25.5028 33.9779 25.0213 35.3609 25.0101H35.3608Z" fill="#103E13"/>
</svg>
